<svg xmlns="http://www.w3.org/2000/svg" xmlns:xlink="http://www.w3.org/1999/xlink" version="1.1" width="127.02738359313217" height="94.3226793084642" viewBox="1.2717095477332325 0.07030950615303233 127.02738359313217 94.3226793084642">
  <!-- Exported by Scratch - http://scratch.mit.edu/ -->
  <path id="ID0.7423224286176264" fill="none" stroke="#000000" stroke-width="5.842981127311855" d="M 4.1932 2.9918 L 122.3787 2.9918 L 122.3787 91.4715 L 4.1932 91.4715 L 4.1932 2.9918 Z "/>
  <path id="ID0.6683977348729968" fill="#000000" stroke="none" d="M 25.703 60.1537 L 33.1507 60.1537 L 33.1507 89.5306 L 25.703 89.5306 L 25.703 60.1537 Z " stroke-width="0.25859925150871277"/>
  <path id="ID0.44739747419953346" fill="#000000" stroke="none" d="M 25.9255 35.342 L 37.097 35.342 L 37.097 45.686 L 25.9255 45.686 L 25.9255 35.342 Z " stroke-width="0.25859925150871277"/>
  <path id="ID0.5064608217217028" fill="#000000" stroke="none" d="M 55.8015 5.3977 L 58.8529 5.3977 L 58.8529 49.463 L 55.8015 49.463 L 55.8015 5.3977 Z " stroke-width="0.21231140193384312"/>
  <path id="ID0.14516101963818073" fill="#000000" stroke="none" d="M 43.8851 54.058 L 50.2984 54.058 L 50.2984 67.1302 L 43.8851 67.1302 L 43.8851 54.058 Z " stroke-width="0.2946819825125477"/>
  <path id="ID0.6358830202370882" fill="#000000" stroke="none" d="M 55.5812 56.1175 L 61.8005 56.1175 L 61.8005 77.633 L 55.5812 77.633 L 55.5812 56.1175 Z " stroke-width="0.2859835447975704"/>
  <path id="ID0.8090929416939616" fill="#000000" stroke="none" d="M 71.439 24.5843 L 71.439 24.5843 L 71.439 24.7911 L 71.439 24.7911 L 71.439 24.5843 Z " stroke-width="0.25859925150871277"/>
  <path id="ID0.9763032170012593" fill="#000000" stroke="none" d="M 93.5959 5.3911 L 120.2833 5.3911 L 120.2833 31.0442 L 93.5959 31.0442 L 93.5959 5.3911 Z " stroke-width="0.25859925150871277"/>
  <path id="ID0.41760838543996215" fill="#000000" stroke="none" d="M 100.1952 65.9601 L 100.4021 65.9601 L 100.4021 65.9601 L 100.1952 65.9601 L 100.1952 65.9601 Z " stroke-width="0.25859925150871277"/>
  <path id="ID0.3913729125633836" fill="#000000" stroke="none" d="M 58.7786 36.5403 L 78.8459 36.5403 L 78.8459 41.7123 L 58.7786 41.7123 L 58.7786 36.5403 Z " stroke-width="0.25859925150871277"/>
  <path id="ID0.4236198775470257" fill="#000000" stroke="none" d="M 61.851 54.3967 L 79.8495 54.3967 L 79.8495 59.698 L 61.851 59.698 L 61.851 54.3967 Z " stroke-width="0.5003226171625432"/>
  <path id="ID0.9603395308367908" fill="#00FF55" stroke="none" d="M 119.3781 68.2544 L 125.3776 68.2544 L 125.3776 75.0814 L 119.3781 75.0814 L 119.3781 68.2544 Z " stroke-width="0.25859925150871277"/>
  <path id="ID0.440158739220351" fill="#000000" stroke="none" d="M 31.925 59.7537 L 45.5791 59.7537 L 45.5791 66.9945 L 31.925 66.9945 L 31.925 59.7537 Z " stroke-width="0.25859925150871277"/>
  <path id="ID0.5241441233083606" fill="#000000" stroke="none" d="M 44.5447 72.5803 L 49.9235 72.5803 L 49.9235 89.1306 L 44.5447 89.1306 L 44.5447 72.5803 Z " stroke-width="0.25859925150871277"/>
  <path id="ID0.6051515727303922" fill="#000000" stroke="none" d="M 32.9594 73.6491 L 39.5796 73.6491 L 39.5796 78.6142 L 32.9594 78.6142 L 32.9594 73.6491 Z " stroke-width="0.25859925150871277"/>
  <path id="ID0.9697331474162638" fill="#000000" stroke="none" d="M 55.7162 77.3385 L 73.3009 77.3385 L 73.3009 82.9242 L 55.7162 82.9242 L 55.7162 77.3385 Z " stroke-width="0.25859925150871277"/>
  <path id="ID0.525262204464525" fill="#000000" stroke="none" d="M 79.5073 54.5818 L 84.6793 54.5818 L 84.6793 82.5105 L 79.5073 82.5105 L 79.5073 54.5818 Z " stroke-width="0.25859925150871277"/>
  <path id="ID0.4827876044437289" fill="#000000" stroke="none" d="M 66.4739 66.3739 L 81.5761 66.3739 L 81.5761 73.2009 L 66.4739 73.2009 L 66.4739 66.3739 Z " stroke-width="0.25859925150871277"/>
  <path id="ID0.14360056584700942" fill="#000000" stroke="none" d="M 84.6793 76.511 L 107.436 76.511 L 107.436 82.5105 L 84.6793 82.5105 L 84.6793 76.511 Z " stroke-width="0.25859925150871277"/>
  <path id="ID0.27675762912258506" fill="#000000" stroke="none" d="M 113.0218 66.3739 L 113.0218 66.3739 L 113.0218 66.9945 L 113.0218 66.9945 L 113.0218 66.3739 Z " stroke-width="0.25859925150871277"/>
  <path id="ID0.2880824515596032" fill="#000000" stroke="none" d="M 102.6778 58.1074 L 107.436 58.1074 L 107.436 76.7266 L 102.6778 76.7266 L 102.6778 58.1074 Z " stroke-width="0.25859925150871277"/>
  <path id="ID0.06607364723458886" fill="#000000" stroke="none" d="M 89.3222 56.6506 L 121.3606 56.6506 L 121.3606 60.7881 L 89.3222 60.7881 L 89.3222 56.6506 Z " stroke-width="0.3766477299402558"/>
  <path id="ID0.08345869090408087" fill="#000000" stroke="none" d="M 112.1406 61.0491 L 113.7956 61.0491 L 113.7956 74.0825 L 112.1406 74.0825 L 112.1406 61.0491 Z " stroke-width="0.25859925150871277"/>
  <path id="ID0.34284292068332434" fill="#000000" stroke="none" d="M 112.8149 80.4417 L 120.0557 80.4417 L 120.0557 82.9242 L 112.8149 82.9242 L 112.8149 80.4417 Z " stroke-width="0.25859925150871277"/>
  <path id="ID0.42460519913583994" fill="#000000" stroke="none" d="M 88.8169 58.4194 L 104.3328 58.4194 L 104.3328 61.9363 L 88.8169 61.9363 L 88.8169 58.4194 Z " stroke-width="0.25859925150871277"/>
  <path id="ID0.20843918342143297" fill="#000000" stroke="none" d="M 90.0581 69.2702 L 93.9889 69.2702 L 93.9889 76.7179 L 90.0581 76.7179 L 90.0581 69.2702 Z " stroke-width="0.25859925150871277"/>
  <path id="ID0.8415423054248095" fill="#000000" stroke="none" d="M 15.3747 70.3046 L 18.6847 70.3046 L 18.6847 83.7518 L 15.3747 83.7518 L 15.3747 70.3046 Z " stroke-width="0.25859925150871277"/>
  <path id="ID0.7715974650345743" fill="#000000" stroke="none" d="M 12.6133 64.0982 L 26.6811 64.0982 L 26.6811 70.0977 L 12.6133 70.0977 L 12.6133 64.0982 Z " stroke-width="0.24126817393715932"/>
  <path id="ID0.027744313701987267" fill="#000000" stroke="none" d="M 25.7186 44.7056 L 29.2356 44.7056 L 29.2356 56.7046 L 25.7186 56.7046 L 25.7186 44.7056 Z " stroke-width="0.2800523608975424"/>
  <path id="ID0.05878617847338319" fill="#000000" stroke="none" d="M 7.0995 52.9267 L 20.7535 52.9267 L 20.7535 56.6506 L 7.0995 56.6506 L 7.0995 52.9267 Z " stroke-width="0.25859925150871277"/>
  <path id="ID0.0059960270300507545" fill="#000000" stroke="none" d="M 12.6852 42.3759 L 26.9599 42.3759 L 26.9599 46.5135 L 12.6852 46.5135 L 12.6852 42.3759 Z " stroke-width="0.25859925150871277"/>
  <path id="ID0.4475083309225738" fill="#000000" stroke="none" d="M 6.9633 30.7906 L 18.9623 30.7906 L 18.9623 36.1695 L 6.9633 36.1695 L 6.9633 30.7906 Z " stroke-width="0.25859925150871277"/>
  <path id="ID0.2528969878330827" fill="#000000" stroke="none" d="M 25.7186 26.0324 L 30.0631 26.0324 L 30.0631 43.6172 L 25.7186 43.6172 L 25.7186 26.0324 Z " stroke-width="0.25859925150871277"/>
  <path id="ID0.44747914280742407" fill="#000000" stroke="none" d="M 7.0995 19.4123 L 22.6155 19.4123 L 22.6155 21.4811 L 7.0995 21.4811 L 7.0995 19.4123 Z " stroke-width="0.25859925150871277"/>
  <path id="ID0.09593592956662178" fill="#000000" stroke="none" d="M 15.3747 20.8604 L 18.6847 20.8604 L 18.6847 26.8599 L 15.3747 26.8599 L 15.3747 20.8604 Z " stroke-width="0.25859925150871277"/>
  <path id="ID0.5565014793537557" fill="#000000" stroke="none" d="M 10.4096 11.1371 L 16.4091 11.1371 L 16.4091 13.2059 L 10.4096 13.2059 L 10.4096 11.1371 Z " stroke-width="0.25859925150871277"/>
  <path id="ID0.4637052216567099" fill="#000000" stroke="none" d="M 20.5467 13.4128 L 20.7535 13.4128 L 20.7535 13.4128 L 20.5467 13.4128 L 20.5467 13.4128 Z " stroke-width="0.25859925150871277"/>
  <path id="ID0.3973931451328099" fill="#000000" stroke="none" d="M 16.4091 10.3096 L 20.5467 10.3096 L 20.5467 19.6191 L 16.4091 19.6191 L 16.4091 10.3096 Z " stroke-width="0.25859925150871277"/>
  <path id="ID0.785874396096915" fill="#000000" stroke="none" d="M 25.856 12.1715 L 57.9223 12.1715 L 57.9223 15.6884 L 25.856 15.6884 L 25.856 12.1715 Z " stroke-width="0.47283339194167884"/>
  <path id="ID0.9977310081012547" fill="#000000" stroke="none" d="M 35.0282 15.2747 L 39.1658 15.2747 L 39.1658 25.6186 L 35.0282 25.6186 L 35.0282 15.2747 Z " stroke-width="0.25859925150871277"/>
  <path id="ID0.6182034048251808" fill="#000000" stroke="none" d="M 43.3034 26.653 L 43.5103 26.653 L 43.5103 26.653 L 43.3034 26.653 L 43.3034 26.653 Z " stroke-width="0.25859925150871277"/>
  <path id="ID0.6716934647411108" fill="#000000" stroke="none" d="M 43.3034 42.5828 L 57.1643 42.5828 L 57.1643 49.4098 L 43.3034 49.4098 L 43.3034 42.5828 Z " stroke-width="0.25859925150871277"/>
  <path id="ID0.4857078134082258" fill="#000000" stroke="none" d="M 43.7172 32.0319 L 48.4754 32.0319 L 48.4754 43.2034 L 43.7172 43.2034 L 43.7172 32.0319 Z " stroke-width="0.25859925150871277"/>
  <path id="ID0.42501487489789724" fill="#000000" stroke="none" d="M 39.1658 21.8948 L 49.5098 21.8948 L 49.5098 26.0324 L 39.1658 26.0324 L 39.1658 21.8948 Z " stroke-width="0.25859925150871277"/>
  <path id="ID0.7795731485821307" fill="#000000" stroke="none" d="M 64.1982 10.3096 L 68.1289 10.3096 L 68.1289 39.2727 L 64.1982 39.2727 L 64.1982 10.3096 Z " stroke-width="0.25859925150871277"/>
  <path id="ID0.4824797632172704" fill="#000000" stroke="none" d="M 72.6803 5.9651 L 77.6454 5.9651 L 77.6454 30.7906 L 72.6803 30.7906 L 72.6803 5.9651 Z " stroke-width="0.25859925150871277"/>
  <path id="ID0.9178612320683897" fill="#000000" stroke="none" d="M 78.4729 36.997 L 83.8518 36.997 L 83.8518 41.5484 L 78.4729 41.5484 L 78.4729 36.997 Z " stroke-width="0.25859925150871277"/>
  <path id="ID0.5211791340261698" fill="#000000" stroke="none" d="M 83.6449 18.5847 L 87.7825 18.5847 L 87.7825 42.169 L 83.6449 42.169 L 83.6449 18.5847 Z " stroke-width="0.25859925150871277"/>
  <path id="ID0.683353207539767" fill="#000000" stroke="none" d="M 93.9889 43.2034 L 119.8488 43.2034 L 119.8488 48.3754 L 93.9889 48.3754 L 93.9889 43.2034 Z " stroke-width="0.25859925150871277"/>
  <path id="ID0.25096211954951286" fill="#000000" stroke="none" d="M 94.4026 35.9626 L 100.609 35.9626 L 100.609 44.6516 L 94.4026 44.6516 L 94.4026 35.9626 Z " stroke-width="0.25859925150871277"/>
</svg>