<svg xmlns="http://www.w3.org/2000/svg" xmlns:xlink="http://www.w3.org/1999/xlink" version="1.1" width="490.64914571867644" height="364.74451315031706" viewBox="1.648234071203765 -1.6515668015989693 490.64914571867644 364.74451315031706">
  <!-- Exported by Scratch - http://scratch.mit.edu/ -->
  <path id="ID0.7423224286176264" fill="none" stroke="#000000" stroke-width="22.59473287687958" d="M 12.9456 9.6458 L 469.9674 9.6458 L 469.9674 351.7956 L 12.9456 351.7956 L 12.9456 9.6458 Z "/>
  <path id="ID0.6683977348729968" fill="#000000" stroke="none" d="M 96.25 230.8 L 125.05 230.8 L 125.05 344.4 L 96.25 344.4 L 96.25 230.8 Z " stroke-width="1"/>
  <path id="ID0.44739747419953346" fill="#000000" stroke="none" d="M 97 134.8 L 140.2 134.8 L 140.2 174.8 L 97 174.8 L 97 134.8 Z " stroke-width="1"/>
  <path id="ID0.5064608217217028" fill="#000000" stroke="none" d="M 213.038 18.9 L 224.838 18.9 L 224.838 189.3 L 213.038 189.3 L 213.038 18.9 Z " stroke-width="0.8210054716788644"/>
  <path id="ID0.14516101963818073" fill="#000000" stroke="none" d="M 166.55 207.051 L 191.35 207.051 L 191.35 257.601 L 166.55 257.601 L 166.55 207.051 Z " stroke-width="1.1395314725867534"/>
  <path id="ID0.6358830202370882" fill="#000000" stroke="none" d="M 212.178 214.9 L 236.228 214.9 L 236.228 298.1 L 212.178 298.1 L 212.178 214.9 Z " stroke-width="1.1058947091826146"/>
  <path id="ID0.8090929416939616" fill="#000000" stroke="none" d="M 273 93.2 L 273 93.2 L 273 94 L 273 94 L 273 93.2 Z " stroke-width="1"/>
  <path id="ID0.9763032170012593" fill="#000000" stroke="none" d="M 358.75 18.8 L 461.95 18.8 L 461.95 118 L 358.75 118 L 358.75 18.8 Z " stroke-width="1"/>
  <path id="ID0.41760838543996215" fill="#000000" stroke="none" d="M 384.2 253.2 L 385 253.2 L 385 253.2 L 384.2 253.2 L 384.2 253.2 Z " stroke-width="1"/>
  <path id="ID0.3913729125633836" fill="#000000" stroke="none" d="M 224.15 139.6 L 301.75 139.6 L 301.75 159.6 L 224.15 159.6 L 224.15 139.6 Z " stroke-width="1"/>
  <path id="ID0.4236198775470257" fill="#000000" stroke="none" d="M 235.8637 208.6071 L 305.4637 208.6071 L 305.4637 229.1071 L 235.8637 229.1071 L 235.8637 208.6071 Z " stroke-width="1.9347411933241305"/>
  <path id="ID0.9603395308367908" fill="#00FF55" stroke="none" d="M 457.8 233 L 481 233 L 481 259.4 L 457.8 259.4 L 457.8 233 Z " stroke-width="1"/>
  <path id="ID0.440158739220351" fill="#000000" stroke="none" d="M 120.2 229.2 L 173 229.2 L 173 257.2 L 120.2 257.2 L 120.2 229.2 Z " stroke-width="1"/>
  <path id="ID0.5241441233083606" fill="#000000" stroke="none" d="M 169 278.8 L 189.8 278.8 L 189.8 342.8 L 169 342.8 L 169 278.8 Z " stroke-width="1"/>
  <path id="ID0.6051515727303922" fill="#000000" stroke="none" d="M 124.2 282.8 L 149.8 282.8 L 149.8 302 L 124.2 302 L 124.2 282.8 Z " stroke-width="1"/>
  <path id="ID0.9697331474162638" fill="#000000" stroke="none" d="M 212.2 297.2 L 280.2 297.2 L 280.2 318.8 L 212.2 318.8 L 212.2 297.2 Z " stroke-width="1"/>
  <path id="ID0.525262204464525" fill="#000000" stroke="none" d="M 304.2 209.2 L 324.2 209.2 L 324.2 317.2 L 304.2 317.2 L 304.2 209.2 Z " stroke-width="1"/>
  <path id="ID0.4827876044437289" fill="#000000" stroke="none" d="M 253.8 254.8 L 312.2 254.8 L 312.2 281.2 L 253.8 281.2 L 253.8 254.8 Z " stroke-width="1"/>
  <path id="ID0.14360056584700942" fill="#000000" stroke="none" d="M 324.2 294 L 412.2 294 L 412.2 317.2 L 324.2 317.2 L 324.2 294 Z " stroke-width="1"/>
  <path id="ID0.27675762912258506" fill="#000000" stroke="none" d="M 433.8 254.8 L 433.8 254.8 L 433.8 257.2 L 433.8 257.2 L 433.8 254.8 Z " stroke-width="1"/>
  <path id="ID0.2880824515596032" fill="#000000" stroke="none" d="M 393.8 223 L 412.2 223 L 412.2 295 L 393.8 295 L 393.8 223 Z " stroke-width="1"/>
  <path id="ID0.06607364723458886" fill="#000000" stroke="none" d="M 341.2256 217.2 L 461.2256 217.2 L 461.2256 233.2 L 341.2256 233.2 L 341.2256 217.2 Z " stroke-width="1.4216513206787058"/>
  <path id="ID0.08345869090408087" fill="#000000" stroke="none" d="M 429.85 233.85 L 436.25 233.85 L 436.25 284.25 L 429.85 284.25 L 429.85 233.85 Z " stroke-width="1"/>
  <path id="ID0.34284292068332434" fill="#000000" stroke="none" d="M 433 309.2 L 461 309.2 L 461 318.8 L 433 318.8 L 433 309.2 Z " stroke-width="1"/>
  <path id="ID0.42460519913583994" fill="#000000" stroke="none" d="M 340.2 224.2 L 400.2 224.2 L 400.2 237.8 L 340.2 237.8 L 340.2 224.2 Z " stroke-width="1"/>
  <path id="ID0.20843918342143297" fill="#000000" stroke="none" d="M 345 266 L 360.2 266 L 360.2 294.8 L 345 294.8 L 345 266 Z " stroke-width="1"/>
  <path id="ID0.8415423054248095" fill="#000000" stroke="none" d="M 56.2 270 L 69 270 L 69 322 L 56.2 322 L 56.2 270 Z " stroke-width="1"/>
  <path id="ID0.7715974650345743" fill="#000000" stroke="none" d="M 45.7373 246 L 100.1373 246 L 100.1373 269.2 L 45.7373 269.2 L 45.7373 246 Z " stroke-width="0.9329809513436033"/>
  <path id="ID0.027744313701987267" fill="#000000" stroke="none" d="M 96.2 170.882 L 109.8 170.882 L 109.8 217.282 L 96.2 217.282 L 96.2 170.882 Z " stroke-width="1.0829588917779027"/>
  <path id="ID0.05878617847338319" fill="#000000" stroke="none" d="M 24.2 202.8 L 77 202.8 L 77 217.2 L 24.2 217.2 L 24.2 202.8 Z " stroke-width="1"/>
  <path id="ID0.0059960270300507545" fill="#000000" stroke="none" d="M 45.8 162 L 101 162 L 101 178 L 45.8 178 L 45.8 162 Z " stroke-width="1"/>
  <path id="ID0.4475083309225738" fill="#000000" stroke="none" d="M 23.8 117.2 L 70.2 117.2 L 70.2 138 L 23.8 138 L 23.8 117.2 Z " stroke-width="1"/>
  <path id="ID0.2528969878330827" fill="#000000" stroke="none" d="M 96.2 98.8 L 113 98.8 L 113 166.8 L 96.2 166.8 L 96.2 98.8 Z " stroke-width="1"/>
  <path id="ID0.44747914280742407" fill="#000000" stroke="none" d="M 24.2 73.2 L 84.2 73.2 L 84.2 81.2 L 24.2 81.2 L 24.2 73.2 Z " stroke-width="1"/>
  <path id="ID0.09593592956662178" fill="#000000" stroke="none" d="M 56.2 78.8 L 69 78.8 L 69 102 L 56.2 102 L 56.2 78.8 Z " stroke-width="1"/>
  <path id="ID0.5565014793537557" fill="#000000" stroke="none" d="M 37 41.2 L 60.2 41.2 L 60.2 49.2 L 37 49.2 L 37 41.2 Z " stroke-width="1"/>
  <path id="ID0.4637052216567099" fill="#000000" stroke="none" d="M 76.2 50 L 77 50 L 77 50 L 76.2 50 L 76.2 50 Z " stroke-width="1"/>
  <path id="ID0.3973931451328099" fill="#000000" stroke="none" d="M 60.2 38 L 76.2 38 L 76.2 74 L 60.2 74 L 60.2 38 Z " stroke-width="1"/>
  <path id="ID0.785874396096915" fill="#000000" stroke="none" d="M 96.5154 45.2 L 220.5154 45.2 L 220.5154 58.8 L 96.5154 58.8 L 96.5154 45.2 Z " stroke-width="1.8284406891500093"/>
  <path id="ID0.9977310081012547" fill="#000000" stroke="none" d="M 132.2 57.2 L 148.2 57.2 L 148.2 97.2 L 132.2 97.2 L 132.2 57.2 Z " stroke-width="1"/>
  <path id="ID0.6182034048251808" fill="#000000" stroke="none" d="M 164.2 101.2 L 165 101.2 L 165 101.2 L 164.2 101.2 L 164.2 101.2 Z " stroke-width="1"/>
  <path id="ID0.6716934647411108" fill="#000000" stroke="none" d="M 164.2 162.8 L 217.8 162.8 L 217.8 189.2 L 164.2 189.2 L 164.2 162.8 Z " stroke-width="1"/>
  <path id="ID0.4857078134082258" fill="#000000" stroke="none" d="M 165.8 122 L 184.2 122 L 184.2 165.2 L 165.8 165.2 L 165.8 122 Z " stroke-width="1"/>
  <path id="ID0.42501487489789724" fill="#000000" stroke="none" d="M 148.2 82.8 L 188.2 82.8 L 188.2 98.8 L 148.2 98.8 L 148.2 82.8 Z " stroke-width="1"/>
  <path id="ID0.7795731485821307" fill="#000000" stroke="none" d="M 245 38 L 260.2 38 L 260.2 150 L 245 150 L 245 38 Z " stroke-width="1"/>
  <path id="ID0.4824797632172704" fill="#000000" stroke="none" d="M 277.8 21.2 L 297 21.2 L 297 117.2 L 277.8 117.2 L 277.8 21.2 Z " stroke-width="1"/>
  <path id="ID0.9178612320683897" fill="#000000" stroke="none" d="M 300.2 141.2 L 321 141.2 L 321 158.8 L 300.2 158.8 L 300.2 141.2 Z " stroke-width="1"/>
  <path id="ID0.5211791340261698" fill="#000000" stroke="none" d="M 320.2 70 L 336.2 70 L 336.2 161.2 L 320.2 161.2 L 320.2 70 Z " stroke-width="1"/>
  <path id="ID0.683353207539767" fill="#000000" stroke="none" d="M 360.2 165.2 L 460.2 165.2 L 460.2 185.2 L 360.2 185.2 L 360.2 165.2 Z " stroke-width="1"/>
  <path id="ID0.25096211954951286" fill="#000000" stroke="none" d="M 361.8 137.2 L 385.8 137.2 L 385.8 170.8 L 361.8 170.8 L 361.8 137.2 Z " stroke-width="1"/>
</svg>