<svg xmlns="http://www.w3.org/2000/svg" xmlns:xlink="http://www.w3.org/1999/xlink" version="1.1" width="127.6603821086773" height="97.00359042166558" viewBox="0.7101074075754146 -0.1830925130788823 127.6603821086773 97.00359042166558">
  <!-- Exported by Scratch - http://scratch.mit.edu/ -->
  <g id="ID0.5913404561579227">
    <path id="ID0.7423224286176264" fill="none" stroke="#000000" stroke-width="5.840985136021046" d="M 3.6306 2.7374 L 121.7757 2.7374 L 121.7757 91.1869 L 3.6306 91.1869 L 3.6306 2.7374 Z "/>
    <path id="ID0.8090929416939616" fill="#000000" stroke="none" d="M 70.815 24.3262 L 70.815 24.3262 L 70.815 24.533 L 70.815 24.533 L 70.815 24.3262 Z " stroke-width="0.25851091742515564"/>
    <path id="ID0.41760838543996215" fill="#000000" stroke="none" d="M 99.5614 65.6879 L 99.7682 65.6879 L 99.7682 65.6879 L 99.5614 65.6879 L 99.5614 65.6879 Z " stroke-width="0.25851091742515564"/>
    <path id="ID0.9603395308367908" fill="#000000" stroke="none" d="M 118.5878 60.4441 L 124.5852 60.4441 L 124.5852 67.2688 L 118.5878 67.2688 L 118.5878 60.4441 Z " stroke-width="0.25851091742515564"/>
    <path id="ID0.27675762912258506" fill="#000000" stroke="none" d="M 112.3835 66.1016 L 112.3835 66.1016 L 112.3835 66.722 L 112.3835 66.722 L 112.3835 66.1016 Z " stroke-width="0.25851091742515564"/>
    <path id="ID0.4637052216567099" fill="#000000" stroke="none" d="M 19.94 13.1585 L 20.1468 13.1585 L 20.1468 13.1585 L 19.94 13.1585 L 19.94 13.1585 Z " stroke-width="0.25851091742515564"/>
    <path id="ID0.6182034048251808" fill="#000000" stroke="none" d="M 42.689 26.3943 L 42.8958 26.3943 L 42.8958 26.3943 L 42.689 26.3943 L 42.689 26.3943 Z " stroke-width="0.25851091742515564"/>
    <text id="ID0.12928298953920603" fill="#000000" text-anchor="start" font-family="Sans Serif" font-size="22" transform="matrix(0.258511 0 0 0.258511 26.617 51.0245)" stroke-width="1" alignment-baseline="text-before-edge" xml:space="preserve"><tspan x="0" style="white-space: pre" dy="1.13em">THE END THE LAST LEVEL</tspan></text>
    <text id="ID0.12928298953920603" fill="#000000" text-anchor="start" font-family="Sans Serif" font-size="22" transform="matrix(0.258511 0 0 0.258511 26.117 36.5745)" stroke-width="1" alignment-baseline="text-before-edge" xml:space="preserve"><tspan x="0" style="white-space: pre" dy="1.13em">THE END THE LAST LEVEL</tspan></text>
    <text id="ID0.12928298953920603" fill="#000000" text-anchor="start" font-family="Sans Serif" font-size="22" transform="matrix(0.258511 0 0 0.258511 10.617 28.0745)" stroke-width="1" alignment-baseline="text-before-edge" xml:space="preserve"><tspan x="0" style="white-space: pre" dy="1.13em">THE END THE LAST LEVEL</tspan></text>
    <text id="ID0.12928298953920603" fill="#000000" text-anchor="start" font-family="Sans Serif" font-size="22" transform="matrix(0.258511 0 0 0.258511 37.267 20.1745)" stroke-width="1" alignment-baseline="text-before-edge" xml:space="preserve"><tspan x="0" style="white-space: pre" dy="1.13em">THE END THE LAST LEVEL</tspan></text>
    <text id="ID0.12928298953920603" fill="#000000" text-anchor="start" font-family="Sans Serif" font-size="22" transform="matrix(0.258511 0 0 0.258511 11.567 10.7745)" stroke-width="1" alignment-baseline="text-before-edge" xml:space="preserve"><tspan x="0" style="white-space: pre" dy="1.13em">THE END THE LAST LEVEL</tspan></text>
    <text id="ID0.12928298953920603" fill="#000000" text-anchor="start" font-family="Sans Serif" font-size="22" transform="matrix(0.258511 0 0 0.258511 43.467 59.4745)" stroke-width="1" alignment-baseline="text-before-edge" xml:space="preserve"><tspan x="0" style="white-space: pre" dy="1.13em">THE END THE LAST LEVEL</tspan></text>
    <text id="ID0.12928298953920603" fill="#000000" text-anchor="start" font-family="Sans Serif" font-size="22" transform="matrix(0.258511 0 0 0.258511 9.26702 67.5745)" stroke-width="1" alignment-baseline="text-before-edge" xml:space="preserve"><tspan x="0" style="white-space: pre" dy="1.13em">THE END THE LAST LEVEL</tspan></text>
    <text id="ID0.12928298953920603" fill="#000000" text-anchor="start" font-family="Sans Serif" font-size="22" transform="matrix(0.258511 0 0 0.258511 31.067 76.0245)" stroke-width="1" alignment-baseline="text-before-edge" xml:space="preserve"><tspan x="0" style="white-space: pre" dy="1.13em">THE END THE LAST LEVEL</tspan></text>
  </g>
  <path id="ID0.4090027888305485" fill="#00FF55" stroke="none" d="M 118.85 87.3 L 125.45 87.3 L 125.45 93.9 L 118.85 93.9 L 118.85 87.3 Z " stroke-width="1"/>
</svg>