<svg xmlns="http://www.w3.org/2000/svg" xmlns:xlink="http://www.w3.org/1999/xlink" version="1.1" width="119.47265809547125" height="93.811952529065" viewBox="1.2684207271972352 0.45222070926815805 119.47265809547125 93.811952529065">
  <!-- Exported by Scratch - http://scratch.mit.edu/ -->
  <g id="ID0.9221926238387823">
    <path id="ID0.7423224286176264" fill="none" stroke="#000000" stroke-width="5.628358779065002" d="M 4.0826 3.2664 L 117.9269 3.2664 L 117.9269 88.4961 L 4.0826 88.4961 L 4.0826 3.2664 Z "/>
    <path id="ID0.6683977348729968" fill="#000000" stroke="none" d="M 19.8608 57.8956 L 27.0349 57.8956 L 27.0349 86.1934 L 19.8608 86.1934 L 19.8608 57.8956 Z " stroke-width="0.2491004765033722"/>
    <path id="ID0.44739747419953346" fill="#000000" stroke="none" d="M 24.9136 34.3805 L 35.6748 34.3805 L 35.6748 44.3446 L 24.9136 44.3446 L 24.9136 34.3805 Z " stroke-width="0.2491004765033722"/>
    <path id="ID0.5064608217217028" fill="#000000" stroke="none" d="M 45.8248 5.5741 L 48.7642 5.5741 L 48.7642 48.0208 L 45.8248 48.0208 L 45.8248 5.5741 Z " stroke-width="0.20451285387735127"/>
    <path id="ID0.14516101963818073" fill="#000000" stroke="none" d="M 33.8813 49.3266 L 40.059 49.3266 L 40.059 59.2906 L 33.8813 59.2906 L 33.8813 49.3266 Z " stroke-width="0.2491004765033722"/>
    <path id="ID0.6358830202370882" fill="#000000" stroke="none" d="M 44.6139 58.2942 L 48.5995 58.2942 L 48.5995 79.0193 L 44.6139 79.0193 L 44.6139 58.2942 Z " stroke-width="0.22557007528315853"/>
    <path id="ID0.8090929416939616" fill="#000000" stroke="none" d="M 68.7553 24.018 L 68.7553 24.018 L 68.7553 24.2172 L 68.7553 24.2172 L 68.7553 24.018 Z " stroke-width="0.2491004765033722"/>
    <path id="ID0.9763032170012593" fill="#000000" stroke="none" d="M 90.1046 5.5672 L 115.8118 5.5672 L 115.8118 30.278 L 90.1046 30.278 L 90.1046 5.5672 Z " stroke-width="0.2491004765033722"/>
    <path id="ID0.41760838543996215" fill="#000000" stroke="none" d="M 96.4553 63.874 L 96.6546 63.874 L 96.6546 63.874 L 96.4553 63.874 L 96.4553 63.874 Z " stroke-width="0.2491004765033722"/>
    <path id="ID0.3913729125633836" fill="#000000" stroke="none" d="M 48.6744 14.0539 L 68.0046 14.0539 L 68.0046 19.036 L 48.6744 19.036 L 48.6744 14.0539 Z " stroke-width="0.2491004765033722"/>
    <path id="ID0.4236198775470257" fill="#000000" stroke="none" d="M 76.9258 68.856 L 83.5021 68.856 L 83.5021 75.8309 L 76.9258 75.8309 L 76.9258 68.856 Z " stroke-width="0.2491004765033722"/>
  </g>
  <path id="ID0.15865145018324256" fill="#00FF55" stroke="none" d="M 10.4 85.45 L 16.4 85.45 L 16.4 91.45 L 10.4 91.45 L 10.4 85.45 Z " stroke-width="1"/>
</svg>