<svg xmlns="http://www.w3.org/2000/svg" xmlns:xlink="http://www.w3.org/1999/xlink" version="1.1" width="491.00776629505924" height="362.9587550645905" viewBox="-0.503883147529614 -2.503883147529614 491.00776629505924 362.9587550645905">
  <!-- Exported by Scratch - http://scratch.mit.edu/ -->
  <path id="ID0.5919212601147592" fill="#666666" stroke="none" d="M 0 192.101 L 490 192.101 L 490 359.951 L 0 359.951 L 0 192.101 Z " stroke-width="0.9743610431794519"/>
  <path id="ID0.6445620702579618" fill="#CCFFFF" stroke="none" d="M 0 -2 L 486 -2 L 486 192.4 L 0 192.4 L 0 -2 Z " stroke-width="1.007766295059228"/>
  <path id="ID0.651595548260957" fill="#FFFFFF" stroke="none" d="M 107 82 C 115.553 82 123.303 84.297 128.914 88.008 C 134.526 91.719 138 96.844 138 102.500 C 138 108.156 134.526 113.281 128.914 116.992 C 123.303 120.703 115.553 123 107 123 C 98.447 123 90.697 120.703 85.086 116.992 C 79.474 113.281 76 108.156 76 102.500 C 76 96.844 79.474 91.719 85.086 88.008 C 90.697 84.297 98.447 82 107 82 Z " stroke-width="1"/>
  <path id="ID0.2662059427239001" fill="#FFFFFF" stroke="none" d="M 137 58 C 144.173 58 150.673 60.409 155.380 64.301 C 160.087 68.193 163 73.568 163 79.500 C 163 85.432 160.087 90.807 155.380 94.699 C 150.673 98.591 144.173 101 137 101 C 129.827 101 123.327 98.591 118.620 94.699 C 113.913 90.807 111 85.432 111 79.500 C 111 73.568 113.913 68.193 118.620 64.301 C 123.327 60.409 129.827 58 137 58 Z " stroke-width="1"/>
  <path id="ID0.14509436720982194" fill="#FFFFFF" stroke="none" d="M 161 88 C 170.104 88 178.354 90.297 184.328 94.008 C 190.302 97.719 194 102.844 194 108.500 C 194 114.156 190.302 119.281 184.328 122.992 C 178.354 126.703 170.104 129 161 129 C 151.896 129 143.646 126.703 137.672 122.992 C 131.698 119.281 128 114.156 128 108.500 C 128 102.844 131.698 97.719 137.672 94.008 C 143.646 90.297 151.896 88 161 88 Z " stroke-width="1"/>
  <path id="ID0.558097317814827" fill="#FFFFFF" stroke="none" d="M 281 80 C 290.656 80 299.406 82.073 305.742 85.422 C 312.078 88.771 316 93.396 316 98.500 C 316 103.604 312.078 108.229 305.742 111.578 C 299.406 114.927 290.656 117 281 117 C 271.344 117 262.594 114.927 256.258 111.578 C 249.922 108.229 246 103.604 246 98.500 C 246 93.396 249.922 88.771 256.258 85.422 C 262.594 82.073 271.344 80 281 80 Z " stroke-width="1"/>
  <path id="ID0.10146291321143508" fill="#FFFFFF" stroke="none" d="M 322 91 C 328.07 91 333.57 93.465 337.552 97.448 C 341.535 101.43 344 106.93 344 113 C 344 119.07 341.535 124.57 337.552 128.552 C 333.57 132.535 328.07 135 322 135 C 315.93 135 310.43 132.535 306.448 128.552 C 302.465 124.57 300 119.07 300 113 C 300 106.93 302.465 101.43 306.448 97.448 C 310.43 93.465 315.93 91 322 91 Z " stroke-width="1"/>
  <path id="ID0.694411366712302" fill="#FFFFFF" stroke="none" d="M 297.5 57 C 303.983 57 309.858 59.633 314.113 63.887 C 318.367 68.142 321 74.017 321 80.5 C 321 86.983 318.367 92.858 314.113 97.113 C 309.858 101.367 303.983 104 297.5 104 C 291.017 104 285.142 101.367 280.887 97.113 C 276.633 92.858 274 86.983 274 80.5 C 274 74.017 276.633 68.142 280.887 63.887 C 285.142 59.633 291.017 57 297.5 57 Z " stroke-width="1"/>
  <path id="ID0.5953700789250433" fill="#FFFFFF" stroke="none" d="M 331 61 C 337.346 61 343.096 63.577 347.259 67.741 C 351.423 71.904 354 77.654 354 84 C 354 90.346 351.423 96.096 347.259 100.259 C 343.096 104.423 337.346 107 331 107 C 324.654 107 318.904 104.423 314.741 100.259 C 310.577 96.096 308 90.346 308 84 C 308 77.654 310.577 71.904 314.741 67.741 C 318.904 63.577 324.654 61 331 61 Z " stroke-width="1"/>
  <path id="ID0.048120045103132725" fill="#FFFFFF" stroke="none" d="M 351.5 78 C 357.983 78 363.858 80.689 368.113 85.034 C 372.367 89.379 375 95.379 375 102 C 375 108.621 372.367 114.621 368.113 118.966 C 363.858 123.311 357.983 126 351.5 126 C 345.017 126 339.142 123.311 334.887 118.966 C 330.633 114.621 328 108.621 328 102 C 328 95.379 330.633 89.379 334.887 85.034 C 339.142 80.689 345.017 78 351.5 78 Z " stroke-width="1"/>
</svg>