<svg xmlns="http://www.w3.org/2000/svg" xmlns:xlink="http://www.w3.org/1999/xlink" version="1.1" width="490.64914571867644" height="364.74451315031706" viewBox="1.648234071203765 -1.6515668015989693 490.64914571867644 364.74451315031706">
  <!-- Exported by Scratch - http://scratch.mit.edu/ -->
  <g id="ID0.5913404561579227">
    <path id="ID0.7423224286176264" fill="none" stroke="#000000" stroke-width="22.59473287687958" d="M 12.9456 9.6458 L 469.9674 9.6458 L 469.9674 351.7956 L 12.9456 351.7956 L 12.9456 9.6458 Z "/>
    <path id="ID0.8090929416939616" fill="#000000" stroke="none" d="M 273 93.2 L 273 93.2 L 273 94 L 273 94 L 273 93.2 Z " stroke-width="1"/>
    <path id="ID0.41760838543996215" fill="#000000" stroke="none" d="M 384.2 253.2 L 385 253.2 L 385 253.2 L 384.2 253.2 L 384.2 253.2 Z " stroke-width="1"/>
    <path id="ID0.9603395308367908" fill="#00FF55" stroke="none" d="M 457.8 233 L 481 233 L 481 259.4 L 457.8 259.4 L 457.8 233 Z " stroke-width="1"/>
    <path id="ID0.27675762912258506" fill="#000000" stroke="none" d="M 433.8 254.8 L 433.8 254.8 L 433.8 257.2 L 433.8 257.2 L 433.8 254.8 Z " stroke-width="1"/>
    <path id="ID0.4637052216567099" fill="#000000" stroke="none" d="M 76.2 50 L 77 50 L 77 50 L 76.2 50 L 76.2 50 Z " stroke-width="1"/>
    <path id="ID0.6182034048251808" fill="#000000" stroke="none" d="M 164.2 101.2 L 165 101.2 L 165 101.2 L 164.2 101.2 L 164.2 101.2 Z " stroke-width="1"/>
    <text id="ID0.12928298953920603" fill="#000000" text-anchor="start" font-family="Sans Serif" font-size="22" transform="matrix(1 0 0 1 102.2 196.5)" stroke-width="1" alignment-baseline="text-before-edge" xml:space="preserve"><tspan x="0" style="white-space: pre" dy="1.13em">THE END THE LAST LEVEL</tspan></text>
    <text id="ID0.12928298953920603" fill="#000000" text-anchor="start" font-family="Sans Serif" font-size="22" transform="matrix(1 0 0 1 100.1 140.7)" stroke-width="1" alignment-baseline="text-before-edge" xml:space="preserve"><tspan x="0" style="white-space: pre" dy="1.13em">THE END THE LAST LEVEL</tspan></text>
    <text id="ID0.12928298953920603" fill="#000000" text-anchor="start" font-family="Sans Serif" font-size="22" transform="matrix(1 0 0 1 40.25 107.7)" stroke-width="1" alignment-baseline="text-before-edge" xml:space="preserve"><tspan x="0" style="white-space: pre" dy="1.13em">THE END THE LAST LEVEL</tspan></text>
    <text id="ID0.12928298953920603" fill="#000000" text-anchor="start" font-family="Sans Serif" font-size="22" transform="matrix(1 0 0 1 143.25 77.15)" stroke-width="1" alignment-baseline="text-before-edge" xml:space="preserve"><tspan x="0" style="white-space: pre" dy="1.13em">THE END THE LAST LEVEL</tspan></text>
    <text id="ID0.12928298953920603" fill="#000000" text-anchor="start" font-family="Sans Serif" font-size="22" transform="matrix(1 0 0 1 43.95 40.95)" stroke-width="1" alignment-baseline="text-before-edge" xml:space="preserve"><tspan x="0" style="white-space: pre" dy="1.13em">THE END THE LAST LEVEL</tspan></text>
    <text id="ID0.12928298953920603" fill="#000000" text-anchor="start" font-family="Sans Serif" font-size="22" transform="matrix(1 0 0 1 167.25 229.35)" stroke-width="1" alignment-baseline="text-before-edge" xml:space="preserve"><tspan x="0" style="white-space: pre" dy="1.13em">THE END THE LAST LEVEL</tspan></text>
    <text id="ID0.12928298953920603" fill="#000000" text-anchor="start" font-family="Sans Serif" font-size="22" transform="matrix(1 0 0 1 35.1 260.55)" stroke-width="1" alignment-baseline="text-before-edge" xml:space="preserve"><tspan x="0" style="white-space: pre" dy="1.13em">THE END THE LAST LEVEL</tspan></text>
    <text id="ID0.12928298953920603" fill="#000000" text-anchor="start" font-family="Sans Serif" font-size="22" transform="matrix(1 0 0 1 119.25 293.35)" stroke-width="1" alignment-baseline="text-before-edge" xml:space="preserve"><tspan x="0" style="white-space: pre" dy="1.13em">THE END THE LAST LEVEL</tspan></text>
  </g>
</svg>