<svg xmlns="http://www.w3.org/2000/svg" xmlns:xlink="http://www.w3.org/1999/xlink" version="1.1" width="479.61655294523894" height="379.54892599211394" viewBox="1.648234071203765 -1.6515668015989693 479.61655294523894 379.54892599211394">
  <!-- Exported by Scratch - http://scratch.mit.edu/ -->
  <path id="ID0.7423224286176264" fill="none" stroke="#000000" stroke-width="22.59473287687958" d="M 12.9456 9.6458 L 469.9674 9.6458 L 469.9674 351.7956 L 12.9456 351.7956 L 12.9456 9.6458 Z "/>
  <path id="ID0.6683977348729968" fill="#000000" stroke="none" d="M 76.2 229.2 L 105 229.2 L 105 342.8 L 76.2 342.8 L 76.2 229.2 Z " stroke-width="1"/>
  <path id="ID0.44739747419953346" fill="#000000" stroke="none" d="M 97 134.8 L 140.2 134.8 L 140.2 174.8 L 97 174.8 L 97 134.8 Z " stroke-width="1"/>
  <path id="ID0.5064608217217028" fill="#000000" stroke="none" d="M 181.038 18.85 L 192.838 18.85 L 192.838 189.25 L 181.038 189.25 L 181.038 18.85 Z " stroke-width="0.8210054716788644"/>
  <path id="ID0.14516101963818073" fill="#000000" stroke="none" d="M 133 194.8 L 157.8 194.8 L 157.8 234.8 L 133 234.8 L 133 194.8 Z " stroke-width="1"/>
  <path id="ID0.6358830202370882" fill="#000000" stroke="none" d="M 176.16 230.8 L 192.16 230.8 L 192.16 314 L 176.16 314 L 176.16 230.8 Z " stroke-width="0.9055385190795272"/>
  <path id="ID0.8090929416939616" fill="#000000" stroke="none" d="M 273 93.2 L 273 93.2 L 273 94 L 273 94 L 273 93.2 Z " stroke-width="1"/>
  <path id="ID0.9763032170012593" fill="#000000" stroke="none" d="M 358.75 18.8 L 461.95 18.8 L 461.95 118 L 358.75 118 L 358.75 18.8 Z " stroke-width="1"/>
  <path id="ID0.41760838543996215" fill="#000000" stroke="none" d="M 384.2 253.2 L 385 253.2 L 385 253.2 L 384.2 253.2 L 384.2 253.2 Z " stroke-width="1"/>
  <path id="ID0.3913729125633836" fill="#000000" stroke="none" d="M 192.2 53.2 L 269.8 53.2 L 269.8 73.2 L 192.2 73.2 L 192.2 53.2 Z " stroke-width="1"/>
  <path id="ID0.4236198775470257" fill="#000000" stroke="none" d="M 305.8 273.2 L 332.2 273.2 L 332.2 301.2 L 305.8 301.2 L 305.8 273.2 Z " stroke-width="1"/>
  <path id="ID0.9603395308367908" fill="#00FF55" stroke="none" d="M 40.2 340.2 L 63.4 340.2 L 63.4 366.6 L 40.2 366.6 L 40.2 340.2 Z " stroke-width="1"/>
</svg>